# xmcd CD database file
#
# Track frame offsets:
#	150
#	22783
#	32616
#	48179
#	64589
#	77388
#	90267
#	105782
#	127884
#	155603
#
# Disc length: 2186 seconds
#
# Revision: 2
# Processed by: cddbd v1.5.1PL2 Copyright (c) Steve Scherf et al.
# Submitted via: CDex 1.51
#
DISCID=5908880a
DTITLE=Nilton Pinto e Tom Carvalho - Causos e Piadas - Vol. 01
DYEAR=1900
DGENRE=Piadas
TTITLE0=Faixa 1 [1-Abertura/2-Bagolino/3-Rapadura/4-Velhas Caducas/5-Velhinho Saliente/6-Pozinho para o Burro/7-Bafômetro]
TTITLE1=Faixa 2 [1-Carrinho de Mão/2-Português/3-Dois Litros de Leite/4-Baile de Caridade/5-Velório na Igreja/6-Zé Firmino/7-Supositório/Põe na conta
TTITLE2=Faixa 3 [1-Mobral/2-Gaguinho/3-Cinco Limões/4-Morte do Burro/5-Louco/6-Bêbado/7-Mau-hálito/8-Mendigo]
TTITLE3=Faixa 4 [1-Governador/2-Avião de Político/3-Plural/4-Cobrando Promessa/5-Papagaio]
TTITLE4=Faixa 5 [1-Bêbado/2-Bêbado no Poste/3-Alambique/4-Sogra/5-Como Viver 100 Anos/6-Meloso]
TTITLE5=Faixa 6 [1-Comunhão/2-Velhinho/3-Marimbondo/4-Dando Palpite/5-No ônibus/6-Macho no Boteco]
TTITLE6=Faixa 7 [1-Gaúcho/2-Dois Nordestinos/3-Mulher Faladeira/4-Corno Manso/5-Valentão]
TTITLE7=Faixa 8 [1-Velório de Pobre/2-Bêbado no Cemitério/3-Conhecendo a Alemanha/4-Lá vem ela/5-Padre/6-Amante/7-Boi Rochedo e Canadá]
TTITLE8=Faixa 9 [1-Tio Geraldo/2-Matando onça]
TTITLE9=Faixa 10 [Mensagem]
EXTD=
EXTT0=
EXTT1=
EXTT2=
EXTT3=
EXTT4=
EXTT5=
EXTT6=
EXTT7=
EXTT8=
EXTT9=
PLAYORDER=
